G04 #@! TF.GenerationSoftware,KiCad,Pcbnew,6.0.2+dfsg-1*
G04 #@! TF.CreationDate,2022-08-15T17:06:07+10:00*
G04 #@! TF.ProjectId,patch-antenna,70617463-682d-4616-9e74-656e6e612e6b,1*
G04 #@! TF.SameCoordinates,Original*
G04 #@! TF.FileFunction,Legend,Bot*
G04 #@! TF.FilePolarity,Positive*
%FSLAX46Y46*%
G04 Gerber Fmt 4.6, Leading zero omitted, Abs format (unit mm)*
G04 Created by KiCad (PCBNEW 6.0.2+dfsg-1) date 2022-08-15 17:06:07*
%MOMM*%
%LPD*%
G01*
G04 APERTURE LIST*
%ADD10C,0.150000*%
%ADD11C,0.120000*%
G04 APERTURE END LIST*
D10*
X130329523Y-98492380D02*
X130805714Y-98492380D01*
X130853333Y-98968571D01*
X130805714Y-98920952D01*
X130710476Y-98873333D01*
X130472380Y-98873333D01*
X130377142Y-98920952D01*
X130329523Y-98968571D01*
X130281904Y-99063809D01*
X130281904Y-99301904D01*
X130329523Y-99397142D01*
X130377142Y-99444761D01*
X130472380Y-99492380D01*
X130710476Y-99492380D01*
X130805714Y-99444761D01*
X130853333Y-99397142D01*
X129662857Y-98492380D02*
X129567619Y-98492380D01*
X129472380Y-98540000D01*
X129424761Y-98587619D01*
X129377142Y-98682857D01*
X129329523Y-98873333D01*
X129329523Y-99111428D01*
X129377142Y-99301904D01*
X129424761Y-99397142D01*
X129472380Y-99444761D01*
X129567619Y-99492380D01*
X129662857Y-99492380D01*
X129758095Y-99444761D01*
X129805714Y-99397142D01*
X129853333Y-99301904D01*
X129900952Y-99111428D01*
X129900952Y-98873333D01*
X129853333Y-98682857D01*
X129805714Y-98587619D01*
X129758095Y-98540000D01*
X129662857Y-98492380D01*
X128948571Y-99492380D02*
X128710476Y-99492380D01*
X128710476Y-99301904D01*
X128805714Y-99254285D01*
X128900952Y-99159047D01*
X128948571Y-99016190D01*
X128948571Y-98778095D01*
X128900952Y-98635238D01*
X128805714Y-98540000D01*
X128662857Y-98492380D01*
X128472380Y-98492380D01*
X128329523Y-98540000D01*
X128234285Y-98635238D01*
X128186666Y-98778095D01*
X128186666Y-99016190D01*
X128234285Y-99159047D01*
X128329523Y-99254285D01*
X128424761Y-99301904D01*
X128424761Y-99492380D01*
X128186666Y-99492380D01*
G04 #@! TO.C,J1*
X129843333Y-103752380D02*
X129843333Y-104466666D01*
X129890952Y-104609523D01*
X129986190Y-104704761D01*
X130129047Y-104752380D01*
X130224285Y-104752380D01*
X128843333Y-104752380D02*
X129414761Y-104752380D01*
X129129047Y-104752380D02*
X129129047Y-103752380D01*
X129224285Y-103895238D01*
X129319523Y-103990476D01*
X129414761Y-104038095D01*
D11*
X128010000Y-109100000D02*
X128010000Y-109300000D01*
X128010000Y-109300000D02*
X128810000Y-109300000D01*
X131010000Y-106300000D02*
X130210000Y-106300000D01*
X128810000Y-106300000D02*
X128210000Y-106300000D01*
X130210000Y-109300000D02*
X131010000Y-109300000D01*
X128810000Y-106300000D02*
X128810000Y-105800000D01*
X131010000Y-106500000D02*
X131010000Y-106300000D01*
X131010000Y-109300000D02*
X131010000Y-109100000D01*
X130210000Y-106300000D02*
X130210000Y-105800000D01*
X128210000Y-106300000D02*
X128010000Y-106500000D01*
G04 #@! TD*
M02*
