G04 #@! TF.GenerationSoftware,KiCad,Pcbnew,6.0.2+dfsg-1*
G04 #@! TF.CreationDate,2022-08-15T17:06:06+10:00*
G04 #@! TF.ProjectId,patch-antenna,70617463-682d-4616-9e74-656e6e612e6b,1*
G04 #@! TF.SameCoordinates,Original*
G04 #@! TF.FileFunction,Copper,L2,Bot*
G04 #@! TF.FilePolarity,Positive*
%FSLAX46Y46*%
G04 Gerber Fmt 4.6, Leading zero omitted, Abs format (unit mm)*
G04 Created by KiCad (PCBNEW 6.0.2+dfsg-1) date 2022-08-15 17:06:06*
%MOMM*%
%LPD*%
G01*
G04 APERTURE LIST*
G04 #@! TA.AperFunction,ComponentPad*
%ADD10R,4.000000X4.000000*%
G04 #@! TD*
G04 #@! TA.AperFunction,SMDPad,CuDef*
%ADD11R,1.000000X1.000000*%
G04 #@! TD*
G04 #@! TA.AperFunction,SMDPad,CuDef*
%ADD12R,1.050000X2.200000*%
G04 #@! TD*
G04 #@! TA.AperFunction,Conductor*
%ADD13C,1.000000*%
G04 #@! TD*
G04 #@! TA.AperFunction,Conductor*
%ADD14C,0.250000*%
G04 #@! TD*
G04 APERTURE END LIST*
D10*
G04 #@! TO.P,AE1,1,A*
G04 #@! TO.N,Net-(AE1-Pad1)*
X129510000Y-102590000D03*
G04 #@! TD*
D11*
G04 #@! TO.P,J1,1,In*
G04 #@! TO.N,Net-(AE1-Pad1)*
X129510000Y-106300000D03*
D12*
G04 #@! TO.P,J1,2,Ext*
G04 #@! TO.N,GND*
X128035000Y-107800000D03*
X130985000Y-107800000D03*
D11*
X129510000Y-109300000D03*
G04 #@! TD*
D13*
G04 #@! TO.N,Net-(AE1-Pad1)*
X129510000Y-106300000D02*
X129510000Y-102590000D01*
D14*
G04 #@! TO.N,GND*
X128035000Y-109295000D02*
X128040000Y-109300000D01*
X130970000Y-109300000D02*
X130985000Y-109285000D01*
D13*
X129510000Y-109300000D02*
X130970000Y-109300000D01*
X128040000Y-109300000D02*
X129510000Y-109300000D01*
X128035000Y-107800000D02*
X128035000Y-109295000D01*
X130985000Y-109285000D02*
X130985000Y-107800000D01*
G04 #@! TD*
G04 #@! TA.AperFunction,Conductor*
G04 #@! TO.N,GND*
G36*
X153072121Y-73650002D02*
G01*
X153118614Y-73703658D01*
X153130000Y-73756000D01*
X153130000Y-112304000D01*
X153109998Y-112372121D01*
X153056342Y-112418614D01*
X153004000Y-112430000D01*
X106036000Y-112430000D01*
X105967879Y-112409998D01*
X105921386Y-112356342D01*
X105910000Y-112304000D01*
X105910000Y-108944669D01*
X127002001Y-108944669D01*
X127002371Y-108951490D01*
X127007895Y-109002352D01*
X127011521Y-109017604D01*
X127056676Y-109138054D01*
X127065214Y-109153649D01*
X127141715Y-109255724D01*
X127154276Y-109268285D01*
X127256351Y-109344786D01*
X127271946Y-109353324D01*
X127392394Y-109398478D01*
X127407649Y-109402105D01*
X127458514Y-109407631D01*
X127465328Y-109408000D01*
X127762885Y-109408000D01*
X127778124Y-109403525D01*
X127779329Y-109402135D01*
X127781000Y-109394452D01*
X127781000Y-109389884D01*
X128289000Y-109389884D01*
X128293475Y-109405123D01*
X128294865Y-109406328D01*
X128302548Y-109407999D01*
X128376001Y-109407999D01*
X128444122Y-109428001D01*
X128490615Y-109481657D01*
X128502001Y-109533999D01*
X128502001Y-109844669D01*
X128502371Y-109851490D01*
X128507895Y-109902352D01*
X128511521Y-109917604D01*
X128556676Y-110038054D01*
X128565214Y-110053649D01*
X128641715Y-110155724D01*
X128654276Y-110168285D01*
X128756351Y-110244786D01*
X128771946Y-110253324D01*
X128892394Y-110298478D01*
X128907649Y-110302105D01*
X128958514Y-110307631D01*
X128965328Y-110308000D01*
X129237885Y-110308000D01*
X129253124Y-110303525D01*
X129254329Y-110302135D01*
X129256000Y-110294452D01*
X129256000Y-110289884D01*
X129764000Y-110289884D01*
X129768475Y-110305123D01*
X129769865Y-110306328D01*
X129777548Y-110307999D01*
X130054669Y-110307999D01*
X130061490Y-110307629D01*
X130112352Y-110302105D01*
X130127604Y-110298479D01*
X130248054Y-110253324D01*
X130263649Y-110244786D01*
X130365724Y-110168285D01*
X130378285Y-110155724D01*
X130454786Y-110053649D01*
X130463324Y-110038054D01*
X130508478Y-109917606D01*
X130512105Y-109902351D01*
X130517631Y-109851486D01*
X130518000Y-109844672D01*
X130518000Y-109534000D01*
X130538002Y-109465879D01*
X130591658Y-109419386D01*
X130644000Y-109408000D01*
X130712885Y-109408000D01*
X130728124Y-109403525D01*
X130729329Y-109402135D01*
X130731000Y-109394452D01*
X130731000Y-109389884D01*
X131239000Y-109389884D01*
X131243475Y-109405123D01*
X131244865Y-109406328D01*
X131252548Y-109407999D01*
X131554669Y-109407999D01*
X131561490Y-109407629D01*
X131612352Y-109402105D01*
X131627604Y-109398479D01*
X131748054Y-109353324D01*
X131763649Y-109344786D01*
X131865724Y-109268285D01*
X131878285Y-109255724D01*
X131954786Y-109153649D01*
X131963324Y-109138054D01*
X132008478Y-109017606D01*
X132012105Y-109002351D01*
X132017631Y-108951486D01*
X132018000Y-108944672D01*
X132018000Y-108072115D01*
X132013525Y-108056876D01*
X132012135Y-108055671D01*
X132004452Y-108054000D01*
X131257115Y-108054000D01*
X131241876Y-108058475D01*
X131240671Y-108059865D01*
X131239000Y-108067548D01*
X131239000Y-109389884D01*
X130731000Y-109389884D01*
X130731000Y-108072115D01*
X130726525Y-108056876D01*
X130725135Y-108055671D01*
X130717452Y-108054000D01*
X129970116Y-108054000D01*
X129954877Y-108058475D01*
X129953672Y-108059865D01*
X129952001Y-108067548D01*
X129952001Y-108166000D01*
X129931999Y-108234121D01*
X129878343Y-108280614D01*
X129826001Y-108292000D01*
X129782115Y-108292000D01*
X129766876Y-108296475D01*
X129765671Y-108297865D01*
X129764000Y-108305548D01*
X129764000Y-110289884D01*
X129256000Y-110289884D01*
X129256000Y-108310116D01*
X129251525Y-108294877D01*
X129250135Y-108293672D01*
X129242452Y-108292001D01*
X129194000Y-108292001D01*
X129125879Y-108271999D01*
X129079386Y-108218343D01*
X129068000Y-108166001D01*
X129068000Y-108072115D01*
X129063525Y-108056876D01*
X129062135Y-108055671D01*
X129054452Y-108054000D01*
X128307115Y-108054000D01*
X128291876Y-108058475D01*
X128290671Y-108059865D01*
X128289000Y-108067548D01*
X128289000Y-109389884D01*
X127781000Y-109389884D01*
X127781000Y-108072115D01*
X127776525Y-108056876D01*
X127775135Y-108055671D01*
X127767452Y-108054000D01*
X127020116Y-108054000D01*
X127004877Y-108058475D01*
X127003672Y-108059865D01*
X127002001Y-108067548D01*
X127002001Y-108944669D01*
X105910000Y-108944669D01*
X105910000Y-107527885D01*
X127002000Y-107527885D01*
X127006475Y-107543124D01*
X127007865Y-107544329D01*
X127015548Y-107546000D01*
X127762885Y-107546000D01*
X127778124Y-107541525D01*
X127779329Y-107540135D01*
X127781000Y-107532452D01*
X127781000Y-106210116D01*
X127776525Y-106194877D01*
X127775135Y-106193672D01*
X127767452Y-106192001D01*
X127465331Y-106192001D01*
X127458510Y-106192371D01*
X127407648Y-106197895D01*
X127392396Y-106201521D01*
X127271946Y-106246676D01*
X127256351Y-106255214D01*
X127154276Y-106331715D01*
X127141715Y-106344276D01*
X127065214Y-106446351D01*
X127056676Y-106461946D01*
X127011522Y-106582394D01*
X127007895Y-106597649D01*
X127002369Y-106648514D01*
X127002000Y-106655328D01*
X127002000Y-107527885D01*
X105910000Y-107527885D01*
X105910000Y-100542623D01*
X127009500Y-100542623D01*
X127009501Y-104637376D01*
X127016149Y-104698580D01*
X127066474Y-104832824D01*
X127071854Y-104840003D01*
X127071856Y-104840006D01*
X127147072Y-104940365D01*
X127152454Y-104947546D01*
X127159635Y-104952928D01*
X127259994Y-105028144D01*
X127259997Y-105028146D01*
X127267176Y-105033526D01*
X127356561Y-105067034D01*
X127394025Y-105081079D01*
X127394027Y-105081079D01*
X127401420Y-105083851D01*
X127409270Y-105084704D01*
X127409271Y-105084704D01*
X127459217Y-105090130D01*
X127462623Y-105090500D01*
X128683500Y-105090500D01*
X128751621Y-105110502D01*
X128798114Y-105164158D01*
X128809500Y-105216500D01*
X128809500Y-106073451D01*
X128789498Y-106141572D01*
X128735842Y-106188065D01*
X128669892Y-106198714D01*
X128611486Y-106192369D01*
X128604672Y-106192000D01*
X128307115Y-106192000D01*
X128291876Y-106196475D01*
X128290671Y-106197865D01*
X128289000Y-106205548D01*
X128289000Y-107527885D01*
X128293475Y-107543124D01*
X128294865Y-107544329D01*
X128302548Y-107546000D01*
X129049885Y-107546000D01*
X129065124Y-107541525D01*
X129066329Y-107540135D01*
X129068000Y-107532452D01*
X129067999Y-107126500D01*
X129088001Y-107058380D01*
X129141656Y-107011886D01*
X129193999Y-107000500D01*
X129501281Y-107000500D01*
X129501941Y-107000502D01*
X129591105Y-107000969D01*
X129592609Y-107000608D01*
X129594481Y-107000500D01*
X129826000Y-107000500D01*
X129894121Y-107020502D01*
X129940614Y-107074158D01*
X129952000Y-107126500D01*
X129952001Y-107527885D01*
X129956476Y-107543124D01*
X129957866Y-107544329D01*
X129965549Y-107546000D01*
X130712885Y-107546000D01*
X130728124Y-107541525D01*
X130729329Y-107540135D01*
X130731000Y-107532452D01*
X130731000Y-107527885D01*
X131239000Y-107527885D01*
X131243475Y-107543124D01*
X131244865Y-107544329D01*
X131252548Y-107546000D01*
X131999884Y-107546000D01*
X132015123Y-107541525D01*
X132016328Y-107540135D01*
X132017999Y-107532452D01*
X132017999Y-106655331D01*
X132017629Y-106648510D01*
X132012105Y-106597648D01*
X132008479Y-106582396D01*
X131963324Y-106461946D01*
X131954786Y-106446351D01*
X131878285Y-106344276D01*
X131865724Y-106331715D01*
X131763649Y-106255214D01*
X131748054Y-106246676D01*
X131627606Y-106201522D01*
X131612351Y-106197895D01*
X131561486Y-106192369D01*
X131554672Y-106192000D01*
X131257115Y-106192000D01*
X131241876Y-106196475D01*
X131240671Y-106197865D01*
X131239000Y-106205548D01*
X131239000Y-107527885D01*
X130731000Y-107527885D01*
X130731000Y-106210116D01*
X130726525Y-106194877D01*
X130725135Y-106193672D01*
X130717452Y-106192001D01*
X130415331Y-106192001D01*
X130408510Y-106192371D01*
X130350105Y-106198714D01*
X130280223Y-106186185D01*
X130228208Y-106137863D01*
X130210500Y-106073451D01*
X130210500Y-105216499D01*
X130230502Y-105148378D01*
X130284158Y-105101885D01*
X130336500Y-105090499D01*
X131557376Y-105090499D01*
X131560770Y-105090130D01*
X131560776Y-105090130D01*
X131610722Y-105084705D01*
X131610726Y-105084704D01*
X131618580Y-105083851D01*
X131752824Y-105033526D01*
X131760003Y-105028146D01*
X131760006Y-105028144D01*
X131860365Y-104952928D01*
X131867546Y-104947546D01*
X131872928Y-104940365D01*
X131948144Y-104840006D01*
X131948146Y-104840003D01*
X131953526Y-104832824D01*
X132003851Y-104698580D01*
X132010500Y-104637377D01*
X132010499Y-100542624D01*
X132003851Y-100481420D01*
X131953526Y-100347176D01*
X131948146Y-100339997D01*
X131948144Y-100339994D01*
X131872928Y-100239635D01*
X131867546Y-100232454D01*
X131860365Y-100227072D01*
X131760006Y-100151856D01*
X131760003Y-100151854D01*
X131752824Y-100146474D01*
X131663439Y-100112966D01*
X131625975Y-100098921D01*
X131625973Y-100098921D01*
X131618580Y-100096149D01*
X131610730Y-100095296D01*
X131610729Y-100095296D01*
X131560774Y-100089869D01*
X131560773Y-100089869D01*
X131557377Y-100089500D01*
X129510300Y-100089500D01*
X127462624Y-100089501D01*
X127459230Y-100089870D01*
X127459224Y-100089870D01*
X127409278Y-100095295D01*
X127409274Y-100095296D01*
X127401420Y-100096149D01*
X127267176Y-100146474D01*
X127259997Y-100151854D01*
X127259994Y-100151856D01*
X127159635Y-100227072D01*
X127152454Y-100232454D01*
X127147072Y-100239635D01*
X127071856Y-100339994D01*
X127071854Y-100339997D01*
X127066474Y-100347176D01*
X127016149Y-100481420D01*
X127009500Y-100542623D01*
X105910000Y-100542623D01*
X105910000Y-73756000D01*
X105930002Y-73687879D01*
X105983658Y-73641386D01*
X106036000Y-73630000D01*
X153004000Y-73630000D01*
X153072121Y-73650002D01*
G37*
G04 #@! TD.AperFunction*
G04 #@! TD*
M02*
